<svg xmlns="http://www.w3.org/2000/svg" xmlns:xlink="http://www.w3.org/1999/xlink" width="24" height="24" viewBox="0 0 24 24">
  <defs>
    <linearGradient id="linear-gradient" x1="0.5" x2="0.5" y2="1.357" gradientUnits="objectBoundingBox">
      <stop offset="0" stop-color="#f3ac0a"/>
      <stop offset="1" stop-color="#7a5605"/>
    </linearGradient>
    <clipPath id="clip-path">
      <rect id="Rectangle_63813" data-name="Rectangle 63813" width="24" height="24" transform="translate(-0.006 0.224)" fill="url(#linear-gradient)"/>
    </clipPath>
    <clipPath id="clip-熱門">
      <rect width="24" height="24"/>
    </clipPath>
  </defs>
  <g id="熱門" clip-path="url(#clip-熱門)">
    <g id="首页_最新消息" transform="translate(0.006 -0.225)" clip-path="url(#clip-path)">
      <rect id="Rectangle_56347" data-name="Rectangle 56347" width="24" height="24" transform="translate(-0.006 0.224)" fill="rgba(0,0,0,0)"/>
      <path id="Path_3047" data-name="Path 3047" d="M49.445,249.536c.058.1.116.194.181.29a6.806,6.806,0,0,0,.472.636A9.306,9.306,0,0,0,51.26,251.6c.172.143.349.283.528.414q.186.136.378.265c.255.171.517.333.782.485l.014.007a1.53,1.53,0,0,0,.145.072c.279.133.626.249.923.392l-.245-.163a1.079,1.079,0,0,1,.194.125h0c.017.014.034.024.051.04-2.093-1.986-2.185-4.782-.7-6.405q.086-.094.178-.183a3.864,3.864,0,0,1,1.1-.731,5.813,5.813,0,0,0,2.506-1.907h0a3.64,3.64,0,0,0,.194-.315c.031-.057.061-.116.086-.168.015-.033.03-.064.044-.1a3.085,3.085,0,0,0,.122-.323h0a2.613,2.613,0,0,0,.1-.448,1.566,1.566,0,0,0,.015-.3c2.689,2.891,1.4,5.421,1.4,5.421h0a1.758,1.758,0,0,0,1.445-1.927l.022.03c2.391,3.1-.093,6.028-.67,6.637-.072.076-.116.116-.116.116a4.583,4.583,0,0,0,1.571-.2q.1-.029.2-.064.162-.054.33-.123a5.629,5.629,0,0,0,1.9-1.3h0a6.676,6.676,0,0,0,.674-.814q.108-.154.213-.321.141-.225.273-.476a9.307,9.307,0,0,0,.492-1.076,6.579,6.579,0,0,0,.421-2.029,8.862,8.862,0,0,0-.319-2.73c-.055-.206-.116-.406-.18-.6a14.145,14.145,0,0,0-1.885-3.713,7.706,7.706,0,0,1-1.486,2.609,8.411,8.411,0,0,0-1.022-6.8q-.1-.15-.216-.3c-.074-.1-.156-.2-.233-.3a10.494,10.494,0,0,0-5.592-3.168h0a2.452,2.452,0,0,1,.41.508,3.591,3.591,0,0,1-.339,3.631,9.859,9.859,0,0,1-1.934,2.171q-.218.2-.439.389c-.293.258-.582.515-.867.779a10.153,10.153,0,0,0-3.037,4.715,8.075,8.075,0,0,0,.5,5.658Q49.314,249.318,49.445,249.536ZM61.973,241.8Z" transform="translate(-45.124 -230.014)" fill="#fff"/>
    </g>
  </g>
</svg>
