<svg width="101" height="100" viewBox="0 0 101 100" fill="none" xmlns="http://www.w3.org/2000/svg">
<g clip-path="url(#clip0_120_2920)">
<rect width="100" height="100" transform="translate(0.40625)" fill="#009B3A"/>
<g clip-path="url(#clip1_120_2920)">
<path d="M-15.2188 3.90625H116.227V95.918H-15.2188V3.90625Z" fill="#009B3A"/>
<path d="M-4.0459 49.9121L50.5039 84.7451L105.054 49.9121L50.5039 15.0791L-4.0459 49.9121Z" fill="#FEDF00"/>
<path d="M50.5039 72.915C63.2081 72.915 73.5068 62.6163 73.5068 49.9121C73.5068 37.2079 63.2081 26.9092 50.5039 26.9092C37.7997 26.9092 27.501 37.2079 27.501 49.9121C27.501 62.6163 37.7997 72.915 50.5039 72.915Z" fill="#002776"/>
<mask id="mask0_120_2920" style="mask-type:luminance" maskUnits="userSpaceOnUse" x="27" y="26" width="47" height="47">
<path d="M50.5039 72.915C63.2081 72.915 73.5068 62.6163 73.5068 49.9121C73.5068 37.2079 63.2081 26.9092 50.5039 26.9092C37.7997 26.9092 27.501 37.2079 27.501 49.9121C27.501 62.6163 37.7997 72.915 50.5039 72.915Z" fill="white"/>
</mask>
<g mask="url(#mask0_120_2920)">
<path d="M-18.5049 95.918C-18.5049 81.1019 -12.6192 66.8926 -2.14262 56.416C8.33397 45.9394 22.5433 40.0537 37.3594 40.0537C52.1755 40.0537 66.3848 45.9394 76.8614 56.416C87.338 66.8926 93.2236 81.1019 93.2236 95.918H89.9375C89.9375 81.9734 84.398 68.5999 74.5377 58.7396C64.6774 48.8793 51.304 43.3398 37.3594 43.3398C23.4148 43.3398 10.0413 48.8793 0.181026 58.7396C-9.67929 68.5999 -15.2187 81.9734 -15.2187 95.918H-18.5049Z" fill="white"/>
</g>
<path fill-rule="evenodd" clip-rule="evenodd" d="M30.8851 43.1882C31.1446 43.1563 31.3795 43.0112 31.5379 42.7848C31.6964 42.5584 31.7655 42.2692 31.7301 41.9808C31.6947 41.6925 31.5577 41.4286 31.3491 41.2473C31.1406 41.0659 30.8777 40.9819 30.6181 41.0138C30.3586 41.0456 30.1238 41.1907 29.9653 41.4172C29.8069 41.6436 29.7377 41.9328 29.7731 42.2211C29.8085 42.5095 29.9456 42.7733 30.1541 42.9547C30.3627 43.1361 30.6256 43.2201 30.8851 43.1882M30.8355 42.7844C30.988 42.7657 31.1253 42.6757 31.2173 42.5343C31.3094 42.3929 31.3486 42.2117 31.3263 42.0304C31.304 41.8492 31.2222 41.6828 31.0987 41.5679C30.9751 41.4529 30.8201 41.3989 30.6677 41.4176C30.5153 41.4363 30.378 41.5263 30.2859 41.6676C30.1939 41.809 30.1547 41.9903 30.177 42.1715C30.1992 42.3528 30.2811 42.5192 30.4046 42.6341C30.5281 42.749 30.6831 42.8031 30.8355 42.7844" fill="#009B3A"/>
<path fill-rule="evenodd" clip-rule="evenodd" d="M32.6699 42.9904L33.0758 42.962L33.019 42.1502L33.8932 42.0891C34.0753 42.0764 34.245 41.9918 34.3648 41.854C34.4846 41.7162 34.5447 41.5364 34.532 41.3542C34.5193 41.1721 34.4347 41.0024 34.2969 40.8826C34.159 40.7628 33.9793 40.7027 33.7971 40.7154L32.5483 40.8027L32.6699 42.9904ZM32.9906 41.7444L33.8336 41.6854C33.9081 41.6802 33.9775 41.6456 34.0265 41.5892C34.0755 41.5329 34.1001 41.4593 34.0949 41.3848C34.0897 41.3103 34.0551 41.2409 33.9987 41.1919C33.9423 41.1429 33.8688 41.1183 33.7943 41.1235L32.9513 41.1824L32.9906 41.7444Z" fill="#009B3A"/>
<path d="M34.5273 42.8605C34.5055 42.5483 34.4575 41.8614 33.9892 41.8942L33.396 41.9357C34.0828 41.8876 34.1309 42.5745 34.1527 42.8867" fill="#009B3A"/>
<path fill-rule="evenodd" clip-rule="evenodd" d="M35.4464 42.8175L36.4791 42.7995C36.6023 42.7973 36.724 42.7709 36.8371 42.7217C36.9501 42.6726 37.0524 42.6016 37.1381 42.5129C37.2237 42.4242 37.2911 42.3195 37.3362 42.2048C37.3814 42.0901 37.4036 41.9676 37.4014 41.8443L37.396 41.5314C37.3938 41.4081 37.3674 41.2865 37.3182 41.1734C37.2691 41.0603 37.1981 40.9581 37.1094 40.8724C37.0207 40.7868 36.916 40.7194 36.8013 40.6742C36.6866 40.629 36.5641 40.6069 36.4408 40.6091L35.4082 40.6271L35.4464 42.8175ZM35.8461 42.4036L36.4407 42.3932C36.5984 42.3905 36.7485 42.3252 36.858 42.2118C36.9676 42.0983 37.0276 41.946 37.0248 41.7883L37.0216 41.6006C37.0188 41.4429 36.9535 41.2927 36.8401 41.1832C36.7266 41.0736 36.5743 41.0136 36.4166 41.0164L35.8221 41.0268L35.8461 42.4036Z" fill="#009B3A"/>
<path d="M38.2282 42.7901L40.1987 42.8589L40.2129 42.4523L38.6178 42.3966L38.6374 41.8336L39.8885 41.8773L39.9016 41.502L38.6505 41.4583L38.6658 41.0204L40.1671 41.0728L40.1813 40.6662L38.3047 40.6007L38.2282 42.7901Z" fill="#009B3A"/>
<path d="M41.0078 42.9085L41.3819 42.9412L41.5129 41.4447L41.8184 42.9794L42.1614 43.0094L42.7288 41.5511L42.5978 43.0476L42.972 43.0803L43.1629 40.8979L42.6173 40.8502L42.0499 42.3085L41.7443 40.7738L41.1987 40.7261L41.0078 42.9085Z" fill="#009B3A"/>
<path d="M45.5465 43.4204L47.1658 43.6986L47.2294 43.3285L45.9802 43.1138L46.065 42.6203L47.0829 42.7952L47.1465 42.4251L46.1286 42.2502L46.1869 41.9109L47.3975 42.1189L47.4611 41.7488L45.8804 41.4772L45.5465 43.4204Z" fill="#009B3A"/>
<path fill-rule="evenodd" clip-rule="evenodd" d="M49.7068 44.2376L50.1007 44.3394L50.3045 43.5516L51.1529 43.771C51.3297 43.8168 51.5174 43.7904 51.6747 43.6977C51.8321 43.605 51.9461 43.4536 51.9919 43.2768C52.0376 43.1 52.0112 42.9123 51.9185 42.755C51.8258 42.5977 51.6744 42.4836 51.4977 42.4379L50.2857 42.1244L49.7068 44.2376ZM50.4063 43.1577L51.2244 43.3693C51.2968 43.388 51.3736 43.3772 51.4379 43.3393C51.5023 43.3014 51.549 43.2395 51.5677 43.1671C51.5864 43.0948 51.5756 43.018 51.5377 42.9537C51.4997 42.8893 51.4378 42.8426 51.3655 42.8239L50.5474 42.6123L50.4063 43.1577Z" fill="#009B3A"/>
<path fill-rule="evenodd" clip-rule="evenodd" d="M52.3944 44.9546L52.7825 45.0769L53.0272 44.3009L53.8629 44.5644C54.0371 44.6193 54.2259 44.6028 54.3879 44.5185C54.5498 44.4342 54.6717 44.2889 54.7266 44.1148C54.7815 43.9406 54.765 43.7518 54.6807 43.5898C54.5964 43.4278 54.4511 43.306 54.277 43.2511L53.0831 42.8746L52.3944 44.9546ZM53.1495 43.9129L53.9554 44.167C54.0266 44.1894 54.1039 44.1827 54.1702 44.1482C54.2364 44.1137 54.2863 44.0543 54.3087 43.983C54.3312 43.9118 54.3244 43.8345 54.2899 43.7683C54.2554 43.702 54.196 43.6522 54.1248 43.6297L53.3189 43.3756L53.1495 43.9129Z" fill="#009B3A"/>
<path d="M54.1702 45.5146C54.2643 45.2161 54.4714 44.5595 54.0237 44.4183L53.4565 44.2395C54.1132 44.4465 53.9062 45.1032 53.812 45.4017" fill="#009B3A"/>
<path fill-rule="evenodd" clip-rule="evenodd" d="M55.9648 46.1565C56.2097 46.2481 56.485 46.2278 56.7301 46.1002C56.9752 45.9725 57.1701 45.7479 57.2718 45.4758C57.3735 45.2037 57.3738 44.9063 57.2726 44.6492C57.1714 44.392 56.9769 44.1961 56.732 44.1045C56.4871 44.013 56.2118 44.0332 55.9667 44.1609C55.7216 44.2886 55.5267 44.5132 55.425 44.7853C55.3232 45.0574 55.323 45.3547 55.4242 45.6119C55.5254 45.8691 55.7199 46.065 55.9648 46.1565M56.1073 45.7755C56.2511 45.8292 56.4144 45.8129 56.5614 45.7299C56.7083 45.647 56.8268 45.5043 56.8907 45.3333C56.9547 45.1623 56.9589 44.9769 56.9024 44.8179C56.8459 44.6589 56.7334 44.5394 56.5895 44.4856C56.4457 44.4318 56.2823 44.4482 56.1354 44.5311C55.9885 44.6141 55.87 44.7567 55.8061 44.9278C55.7421 45.0988 55.7379 45.2842 55.7944 45.4432C55.8509 45.6022 55.9634 45.7217 56.1073 45.7755" fill="#009B3A"/>
<mask id="mask1_120_2920" style="mask-type:luminance" maskUnits="userSpaceOnUse" x="57" y="44" width="4" height="4">
<path d="M57.6391 46.8053L58.5127 44.7963L60.3208 45.5825L59.4473 47.5915L57.6391 46.8053ZM59.1297 45.8495L58.98 46.1939L59.8841 46.587L60.0338 46.2426L59.1297 45.8495Z" fill="white"/>
</mask>
<g mask="url(#mask1_120_2920)">
<path fill-rule="evenodd" clip-rule="evenodd" d="M58.5432 47.1984C58.783 47.3027 59.059 47.2968 59.3104 47.1822C59.5619 47.0675 59.7682 46.8534 59.8841 46.587C59.9999 46.3206 60.0158 46.0237 59.9281 45.7616C59.8405 45.4994 59.6565 45.2936 59.4168 45.1894C59.177 45.0851 58.901 45.091 58.6496 45.2056C58.3981 45.3203 58.1918 45.5344 58.0759 45.8008C57.9601 46.0672 57.9442 46.3641 58.0319 46.6262C58.1195 46.8883 58.3034 47.0942 58.5432 47.1984M58.7054 46.8253C58.8463 46.8865 59.0102 46.8787 59.1613 46.8036C59.3124 46.7285 59.4381 46.5922 59.511 46.4248C59.5838 46.2573 59.5977 46.0724 59.5496 45.9107C59.5015 45.749 59.3954 45.6237 59.2545 45.5625C59.1137 45.5012 58.9497 45.509 58.7987 45.5842C58.6476 45.6593 58.5218 45.7956 58.449 45.963C58.3762 46.1305 58.3623 46.3154 58.4104 46.4771C58.4585 46.6388 58.5646 46.7641 58.7054 46.8253" fill="#009B3A"/>
</g>
<path d="M59.1235 46.2562L59.8841 46.5869L59.7593 46.8739L58.9987 46.5432L59.1235 46.2562Z" fill="#009B3A"/>
<path d="M59.5972 46.4622L59.8842 46.587L59.4474 47.5915L59.1604 47.4667L59.5972 46.4622Z" fill="#009B3A"/>
<path fill-rule="evenodd" clip-rule="evenodd" d="M60.1817 47.934L60.5458 48.1155L60.9089 47.3873L61.6931 47.7783C61.8565 47.8598 62.0456 47.873 62.2188 47.8151C62.3919 47.7571 62.535 47.6328 62.6165 47.4693C62.698 47.3059 62.7112 47.1168 62.6532 46.9436C62.5953 46.7705 62.4709 46.6274 62.3075 46.5459L61.1872 45.9874L60.1817 47.934ZM61.0904 47.0232L61.8466 47.4002C61.9135 47.4336 61.9908 47.439 62.0617 47.4153C62.1325 47.3916 62.191 47.3407 62.2244 47.2738C62.2577 47.207 62.2631 47.1296 62.2394 47.0588C62.2157 46.9879 62.1648 46.9294 62.098 46.8961L61.3418 46.519L61.0904 47.0232Z" fill="#009B3A"/>
<path d="M61.8482 48.7649C61.9878 48.4848 62.2951 47.8686 61.8749 47.6591L61.3428 47.3938C61.959 47.701 61.6517 48.3172 61.5121 48.5973" fill="#009B3A"/>
<path d="M62.6619 49.1942L64.378 50.1651L64.5784 49.811L63.1892 49.025L63.4666 48.5347L64.5561 49.1512L64.7411 48.8243L63.6515 48.2079L63.8672 47.8265L65.1747 48.5663L65.3751 48.2121L63.7407 47.2875L62.6619 49.1942Z" fill="#009B3A"/>
<path d="M65.858 50.2666C65.7403 50.4514 65.8596 50.6573 66.1235 50.8254C66.3875 50.9936 66.5672 50.9875 66.6432 50.8689C66.8828 50.4928 65.4975 49.9442 65.9245 49.2885C66.2926 48.7252 66.9225 49.1636 67.16 49.315C67.3976 49.4663 67.779 49.8577 67.4824 50.3088L67.0798 50.0524C67.206 49.8544 67.0674 49.6642 66.8563 49.5296C66.6517 49.3993 66.4855 49.3398 66.3636 49.5312C66.1594 49.8371 67.5171 50.4145 67.1009 51.0678C66.7941 51.5495 66.2601 51.3392 65.9037 51.1122C65.6002 50.9188 65.1467 50.4629 65.4422 50.0018L65.858 50.2666Z" fill="#009B3A"/>
<path d="M68.2085 51.8207C68.0813 51.999 68.1897 52.2109 68.4444 52.3926C68.6992 52.5744 68.8791 52.5777 68.9611 52.4632C69.2201 52.1002 67.8654 51.4798 68.3261 50.8474C68.7232 50.3042 69.3293 50.7749 69.5586 50.9385C69.7879 51.102 70.1483 51.5129 69.8285 51.9479L69.4399 51.6707C69.5762 51.4796 69.4478 51.2823 69.244 51.137C69.0466 50.9961 68.8837 50.928 68.7519 51.1127C68.532 51.4076 69.8576 52.0552 69.4078 52.6858C69.0762 53.1508 68.5539 52.9128 68.21 52.6675C67.917 52.4585 67.4879 51.9794 67.8072 51.5345L68.2085 51.8207Z" fill="#009B3A"/>
<path fill-rule="evenodd" clip-rule="evenodd" d="M70.4312 54.3413C70.6358 54.504 70.9039 54.5698 71.1765 54.5241C71.449 54.4785 71.7038 54.3251 71.8846 54.0977C72.0654 53.8704 72.1576 53.5877 72.1408 53.3118C72.124 53.0359 71.9996 52.7895 71.795 52.6268C71.5903 52.464 71.3223 52.3982 71.0497 52.4439C70.7771 52.4896 70.5224 52.643 70.3415 52.8703C70.1607 53.0977 70.0685 53.3804 70.0854 53.6562C70.1022 53.9321 70.2266 54.1785 70.4312 54.3413M70.6845 54.0229C70.8046 54.1184 70.965 54.1534 71.1304 54.1199C71.2958 54.0864 71.4525 53.9873 71.5662 53.8444C71.6799 53.7015 71.7412 53.5265 71.7366 53.3579C71.732 53.1892 71.6619 53.0408 71.5417 52.9452C71.4215 52.8496 71.2611 52.8147 71.0957 52.8481C70.9304 52.8816 70.7736 52.9807 70.66 53.1236C70.5463 53.2665 70.485 53.4415 70.4896 53.6102C70.4942 53.7788 70.5643 53.9273 70.6845 54.0229" fill="#009B3A"/>
<path d="M31.7261 44.7952L31.4214 45.7328L31.8902 45.8851" fill="white"/>
<path d="M31.7261 44.7952L32.0307 45.7328L31.5619 45.8851" fill="white"/>
<path d="M32.6636 45.4763H31.6777V45.9692" fill="white"/>
<path d="M32.6636 45.4763L31.866 46.0558L31.5763 45.657" fill="white"/>
<path d="M30.7886 45.4764L31.5861 46.0559L31.8759 45.6571" fill="white"/>
<path d="M30.7886 45.4764H31.7744V45.9694" fill="white"/>
<path d="M32.3052 46.5785L32.0005 45.6409L31.5317 45.7932" fill="white"/>
<path d="M32.3052 46.5785L31.5076 45.999L31.7973 45.6002" fill="white"/>
<path d="M31.1465 46.5786L31.944 45.9992L31.6543 45.6004" fill="white"/>
<path d="M31.1465 46.5786L31.4511 45.641L31.9199 45.7933" fill="white"/>
<path d="M33.7603 54.4658L33.4556 55.4034L33.9244 55.5557" fill="white"/>
<path d="M33.7603 54.4658L34.0649 55.4034L33.5961 55.5557" fill="white"/>
<path d="M34.6982 55.147H33.7124V55.6399" fill="white"/>
<path d="M34.6982 55.147L33.9007 55.7264L33.6109 55.3277" fill="white"/>
<path d="M32.8228 55.1471L33.6203 55.7266L33.91 55.3278" fill="white"/>
<path d="M32.8228 55.1471H33.8086V55.64" fill="white"/>
<path d="M34.3394 56.2491L34.0347 55.3116L33.5659 55.4639" fill="white"/>
<path d="M34.3394 56.2491L33.5418 55.6697L33.8315 55.2709" fill="white"/>
<path d="M33.1807 56.2493L33.9782 55.6698L33.6885 55.271" fill="white"/>
<path d="M33.1807 56.2493L33.4853 55.3117L33.9541 55.464" fill="white"/>
<path d="M30.9434 56.6957L30.6895 57.477L31.0802 57.6039" fill="white"/>
<path d="M30.9434 56.6957L31.1972 57.477L30.8066 57.6039" fill="white"/>
<path d="M31.7251 57.2633H30.9036V57.6741" fill="white"/>
<path d="M31.7251 57.2633L31.0605 57.7462L30.819 57.4139" fill="white"/>
<path d="M30.1621 57.2633L30.8267 57.7462L31.0682 57.4139" fill="white"/>
<path d="M30.1621 57.2633H30.9836V57.6741" fill="white"/>
<path d="M31.4268 58.1818L31.1729 57.4004L30.7822 57.5274" fill="white"/>
<path d="M31.4268 58.1818L30.7621 57.6989L31.0036 57.3666" fill="white"/>
<path d="M30.4609 58.1819L31.1256 57.699L30.8841 57.3667" fill="white"/>
<path d="M30.4609 58.1819L30.7148 57.4006L31.1055 57.5275" fill="white"/>
<path d="M36.0137 53.5739L35.8686 54.0203L36.0918 54.0929" fill="white"/>
<path d="M36.0137 53.5739L36.1587 54.0203L35.9355 54.0929" fill="white"/>
<path d="M36.46 53.8982H35.9905V54.1329" fill="white"/>
<path d="M36.46 53.8982L36.0802 54.1741L35.9422 53.9842" fill="white"/>
<path d="M35.5669 53.8983L35.9467 54.1742L36.0847 53.9844" fill="white"/>
<path d="M35.5669 53.8983H36.0363V54.133" fill="white"/>
<path d="M36.2896 54.4231L36.1445 53.9766L35.9212 54.0492" fill="white"/>
<path d="M36.2896 54.4231L35.9098 54.1472L36.0477 53.9573" fill="white"/>
<path d="M35.7378 54.4231L36.1176 54.1472L35.9796 53.9573" fill="white"/>
<path d="M35.7378 54.4231L35.8829 53.9766L36.1061 54.0492" fill="white"/>
<path d="M38.5488 56.9147L38.295 57.696L38.6856 57.8229" fill="white"/>
<path d="M38.5488 56.9147L38.8027 57.696L38.412 57.8229" fill="white"/>
<path d="M39.3301 57.4823H38.5085V57.8931" fill="white"/>
<path d="M39.3301 57.4823L38.6654 57.9652L38.424 57.6329" fill="white"/>
<path d="M37.7671 57.4823L38.4317 57.9652L38.6732 57.6329" fill="white"/>
<path d="M37.7671 57.4823H38.5886V57.8931" fill="white"/>
<path d="M39.0317 58.4009L38.7779 57.6196L38.3872 57.7465" fill="white"/>
<path d="M39.0317 58.4009L38.3671 57.918L38.6085 57.5857" fill="white"/>
<path d="M38.0659 58.4009L38.7306 57.918L38.4891 57.5857" fill="white"/>
<path d="M38.0659 58.4009L38.3198 57.6196L38.7104 57.7465" fill="white"/>
<path d="M37.8604 59.3636L37.6573 59.9887L37.9698 60.0903" fill="white"/>
<path d="M37.8604 59.3636L38.0634 59.9887L37.7509 60.0903" fill="white"/>
<path d="M38.4854 59.8179H37.8281V60.1465" fill="white"/>
<path d="M38.4854 59.8179L37.9536 60.2042L37.7605 59.9383" fill="white"/>
<path d="M37.2354 59.8177L37.7671 60.2041L37.9602 59.9382" fill="white"/>
<path d="M37.2354 59.8177H37.8926V60.1464" fill="white"/>
<path d="M38.2466 60.5526L38.0435 59.9276L37.731 60.0291" fill="white"/>
<path d="M38.2466 60.5526L37.7149 60.1663L37.908 59.9005" fill="white"/>
<path d="M37.4736 60.5525L38.0053 60.1662L37.8122 59.9003" fill="white"/>
<path d="M37.4736 60.5525L37.6767 59.9274L37.9893 60.029" fill="white"/>
<path d="M57.6396 41.7906L57.335 42.7282L57.8038 42.8806" fill="white"/>
<path d="M57.6396 41.7906L57.9443 42.7282L57.4755 42.8806" fill="white"/>
<path d="M58.5771 42.4718H57.5913V42.9647" fill="white"/>
<path d="M58.5771 42.4718L57.7796 43.0513L57.4899 42.6525" fill="white"/>
<path d="M56.7021 42.4719L57.4997 43.0514L57.7894 42.6526" fill="white"/>
<path d="M56.7021 42.4719H57.688V42.9648" fill="white"/>
<path d="M58.2188 43.574L57.9141 42.6364L57.4453 42.7887" fill="white"/>
<path d="M58.2188 43.574L57.4212 42.9945L57.7109 42.5957" fill="white"/>
<path d="M57.0601 43.5741L57.8576 42.9946L57.5679 42.5959" fill="white"/>
<path d="M57.0601 43.5741L57.3647 42.6365L57.8335 42.7888" fill="white"/>
<path d="M66.6216 57.0007L66.3169 57.9383L66.7857 58.0906" fill="white"/>
<path d="M66.6216 57.0007L66.9262 57.9383L66.4574 58.0906" fill="white"/>
<path d="M67.5596 57.682H66.5737V58.1749" fill="white"/>
<path d="M67.5596 57.682L66.762 58.2615L66.4723 57.8627" fill="white"/>
<path d="M65.6841 57.682L66.4816 58.2615L66.7714 57.8627" fill="white"/>
<path d="M65.6841 57.682H66.6699V58.1749" fill="white"/>
<path d="M67.2007 58.7841L66.896 57.8465L66.4272 57.9988" fill="white"/>
<path d="M67.2007 58.7841L66.4031 58.2046L66.6929 57.8058" fill="white"/>
<path d="M66.042 58.7842L66.8396 58.2047L66.5498 57.8059" fill="white"/>
<path d="M66.042 58.7842L66.3466 57.8466L66.8154 57.9989" fill="white"/>
<path d="M69.814 57.5485L69.6109 58.1735L69.9234 58.2751" fill="white"/>
<path d="M69.814 57.5485L70.0171 58.1735L69.7045 58.2751" fill="white"/>
<path d="M70.439 58.0026H69.7817V58.3312" fill="white"/>
<path d="M70.439 58.0026L69.9073 58.3889L69.7141 58.123" fill="white"/>
<path d="M69.189 58.0026L69.7207 58.3889L69.9138 58.123" fill="white"/>
<path d="M69.189 58.0026H69.8462V58.3312" fill="white"/>
<path d="M70.2002 58.7374L69.9971 58.1124L69.6846 58.2139" fill="white"/>
<path d="M70.2002 58.7374L69.6685 58.3511L69.8616 58.0853" fill="white"/>
<path d="M69.4272 58.7373L69.959 58.351L69.7658 58.0851" fill="white"/>
<path d="M69.4272 58.7373L69.6303 58.1122L69.9429 58.2138" fill="white"/>
<path d="M67.5605 59.1993L67.3067 59.9807L67.6973 60.1076" fill="white"/>
<path d="M67.5605 59.1993L67.8144 59.9807L67.4238 60.1076" fill="white"/>
<path d="M68.3418 59.767H67.5203V60.1777" fill="white"/>
<path d="M68.3418 59.767L67.6772 60.2499L67.4357 59.9175" fill="white"/>
<path d="M66.7793 59.767L67.4439 60.2499L67.6854 59.9175" fill="white"/>
<path d="M66.7793 59.767H67.6008V60.1777" fill="white"/>
<path d="M68.0435 60.6855L67.7896 59.9042L67.3989 60.0312" fill="white"/>
<path d="M68.0435 60.6855L67.3788 60.2027L67.6203 59.8703" fill="white"/>
<path d="M67.0776 60.6855L67.7423 60.2027L67.5008 59.8703" fill="white"/>
<path d="M67.0776 60.6855L67.3315 59.9042L67.7222 60.0312" fill="white"/>
<path d="M62.021 64.019L61.7671 64.8004L62.1578 64.9273" fill="white"/>
<path d="M62.021 64.019L62.2749 64.8004L61.8842 64.9273" fill="white"/>
<path d="M62.8022 64.5868H61.9807V64.9976" fill="white"/>
<path d="M62.8022 64.5868L62.1376 65.0697L61.8962 64.7374" fill="white"/>
<path d="M61.2397 64.5867L61.9044 65.0696L62.1458 64.7372" fill="white"/>
<path d="M61.2397 64.5867H62.0613V64.9974" fill="white"/>
<path d="M62.5039 65.5052L62.25 64.7239L61.8594 64.8509" fill="white"/>
<path d="M62.5039 65.5052L61.8393 65.0224L62.0807 64.69" fill="white"/>
<path d="M61.5381 65.5051L62.2027 65.0222L61.9613 64.6899" fill="white"/>
<path d="M61.5381 65.5051L61.792 64.7238L62.1826 64.8507" fill="white"/>
<path d="M61.9897 66.4993L61.7867 67.1243L62.0992 67.2259" fill="white"/>
<path d="M61.9897 66.4993L62.1928 67.1243L61.8803 67.2259" fill="white"/>
<path d="M62.6147 66.9534H61.9575V67.282" fill="white"/>
<path d="M62.6147 66.9534L62.083 67.3397L61.8899 67.0738" fill="white"/>
<path d="M61.3647 66.9534L61.8965 67.3397L62.0896 67.0738" fill="white"/>
<path d="M61.3647 66.9534H62.022V67.282" fill="white"/>
<path d="M62.376 67.6882L62.1729 67.0632L61.8604 67.1647" fill="white"/>
<path d="M62.376 67.6882L61.8443 67.3019L62.0374 67.0361" fill="white"/>
<path d="M61.6035 67.6881L62.1352 67.3018L61.9421 67.0359" fill="white"/>
<path d="M61.6035 67.6881L61.8066 67.0631L62.1191 67.1646" fill="white"/>
<path d="M64.3057 62.3682L64.1026 62.9932L64.4151 63.0948" fill="white"/>
<path d="M64.3057 62.3682L64.5088 62.9932L64.1962 63.0948" fill="white"/>
<path d="M64.9307 62.8223H64.2734V63.1509" fill="white"/>
<path d="M64.9307 62.8223L64.399 63.2086L64.2058 62.9427" fill="white"/>
<path d="M63.6807 62.8223L64.2124 63.2086L64.4055 62.9427" fill="white"/>
<path d="M63.6807 62.8223H64.3379V63.1509" fill="white"/>
<path d="M64.6919 63.5571L64.4888 62.9321L64.1763 63.0336" fill="white"/>
<path d="M64.6919 63.5571L64.1602 63.1708L64.3533 62.905" fill="white"/>
<path d="M63.9194 63.557L64.4511 63.1707L64.258 62.9048" fill="white"/>
<path d="M63.9194 63.557L64.1225 62.9319L64.4351 63.0335" fill="white"/>
<path d="M66.1523 61.0459L65.8985 61.8272L66.2891 61.9542" fill="white"/>
<path d="M66.1523 61.0459L66.4062 61.8272L66.0155 61.9542" fill="white"/>
<path d="M66.9336 61.6135H66.1121V62.0243" fill="white"/>
<path d="M66.9336 61.6135L66.269 62.0964L66.0275 61.7641" fill="white"/>
<path d="M65.3706 61.6135L66.0352 62.0964L66.2767 61.7641" fill="white"/>
<path d="M65.3706 61.6135H66.1921V62.0243" fill="white"/>
<path d="M66.6353 62.5321L66.3814 61.7508L65.9907 61.8777" fill="white"/>
<path d="M66.6353 62.5321L65.9706 62.0492L66.2121 61.7169" fill="white"/>
<path d="M65.6694 62.5321L66.3341 62.0492L66.0926 61.7169" fill="white"/>
<path d="M65.6694 62.5321L65.9233 61.7508L66.314 61.8777" fill="white"/>
<path d="M61.9272 61.9299L61.7242 62.555L62.0367 62.6565" fill="white"/>
<path d="M61.9272 61.9299L62.1303 62.555L61.8178 62.6565" fill="white"/>
<path d="M62.5522 62.384H61.895V62.7126" fill="white"/>
<path d="M62.5522 62.384L62.0205 62.7703L61.8274 62.5045" fill="white"/>
<path d="M61.3022 62.384L61.834 62.7703L62.0271 62.5045" fill="white"/>
<path d="M61.3022 62.384H61.9595V62.7126" fill="white"/>
<path d="M62.3135 63.1189L62.1104 62.4938L61.7979 62.5954" fill="white"/>
<path d="M62.3135 63.1189L61.7818 62.7326L61.9749 62.4667" fill="white"/>
<path d="M61.541 63.1188L62.0727 62.7325L61.8796 62.4666" fill="white"/>
<path d="M61.541 63.1188L61.7441 62.4937L62.0566 62.5953" fill="white"/>
<path d="M41.7407 50.0295L41.4869 50.8109L41.8775 50.9378" fill="white"/>
<path d="M41.7407 50.0295L41.9946 50.8109L41.6039 50.9378" fill="white"/>
<path d="M42.522 50.5973H41.7004V51.0081" fill="white"/>
<path d="M42.522 50.5973L41.8573 51.0802L41.6159 50.7479" fill="white"/>
<path d="M40.9595 50.5972L41.6241 51.0801L41.8655 50.7477" fill="white"/>
<path d="M40.9595 50.5972H41.781V51.0079" fill="white"/>
<path d="M42.2241 51.5157L41.9703 50.7344L41.5796 50.8614" fill="white"/>
<path d="M42.2241 51.5157L41.5595 51.0329L41.8009 50.7005" fill="white"/>
<path d="M41.2583 51.5157L41.9229 51.0329L41.6815 50.7005" fill="white"/>
<path d="M41.2583 51.5157L41.5122 50.7344L41.9028 50.8614" fill="white"/>
<path d="M56.7632 48.0969L56.5601 48.722L56.8726 48.8235" fill="white"/>
<path d="M56.7632 48.0969L56.9663 48.722L56.6537 48.8235" fill="white"/>
<path d="M57.3882 48.551H56.731V48.8796" fill="white"/>
<path d="M57.3882 48.551L56.8565 48.9373L56.6633 48.6715" fill="white"/>
<path d="M56.1382 48.551L56.6699 48.9373L56.863 48.6715" fill="white"/>
<path d="M56.1382 48.551H56.7954V48.8796" fill="white"/>
<path d="M57.1494 49.2859L56.9463 48.6608L56.6338 48.7624" fill="white"/>
<path d="M57.1494 49.2859L56.6177 48.8996L56.8109 48.6337" fill="white"/>
<path d="M56.377 49.2859L56.9087 48.8996L56.7155 48.6337" fill="white"/>
<path d="M56.377 49.2859L56.58 48.6608L56.8926 48.7624" fill="white"/>
<path d="M50.5039 59.2542L50.1993 60.1917L50.6681 60.3441" fill="white"/>
<path d="M50.5039 59.2542L50.8085 60.1917L50.3398 60.3441" fill="white"/>
<path d="M51.4414 59.9353H50.4556V60.4282" fill="white"/>
<path d="M51.4414 59.9353L50.6438 60.5148L50.3541 60.116" fill="white"/>
<path d="M49.5664 59.9354L50.364 60.5149L50.6537 60.1161" fill="white"/>
<path d="M49.5664 59.9354H50.5522V60.4283" fill="white"/>
<path d="M51.083 61.0375L50.7784 60.0999L50.3096 60.2522" fill="white"/>
<path d="M51.083 61.0375L50.2854 60.458L50.5752 60.0592" fill="white"/>
<path d="M49.9243 61.0376L50.7219 60.4581L50.4321 60.0594" fill="white"/>
<path d="M49.9243 61.0376L50.229 60.1L50.6978 60.2523" fill="white"/>
<path d="M53.1641 54.8491L52.9102 55.6304L53.3009 55.7574" fill="white"/>
<path d="M53.1641 54.8491L53.4179 55.6304L53.0273 55.7574" fill="white"/>
<path d="M53.9453 55.4169H53.1238V55.8276" fill="white"/>
<path d="M53.9453 55.4169L53.2807 55.8998L53.0392 55.5674" fill="white"/>
<path d="M52.3828 55.4167L53.0474 55.8996L53.2889 55.5673" fill="white"/>
<path d="M52.3828 55.4167H53.2043V55.8275" fill="white"/>
<path d="M53.6475 56.3353L53.3936 55.554L53.0029 55.6809" fill="white"/>
<path d="M53.6475 56.3353L52.9828 55.8524L53.2243 55.5201" fill="white"/>
<path d="M52.6816 56.3353L53.3463 55.8524L53.1048 55.5201" fill="white"/>
<path d="M52.6816 56.3353L52.9355 55.554L53.3262 55.6809" fill="white"/>
<path d="M50.5039 52.7836L50.25 53.5649L50.6407 53.6918" fill="white"/>
<path d="M50.5039 52.7836L50.7578 53.5649L50.3671 53.6918" fill="white"/>
<path d="M51.2852 53.3513H50.4636V53.7621" fill="white"/>
<path d="M51.2852 53.3513L50.6205 53.8342L50.3791 53.5019" fill="white"/>
<path d="M49.7227 53.3512L50.3873 53.8341L50.6287 53.5018" fill="white"/>
<path d="M49.7227 53.3512H50.5442V53.762" fill="white"/>
<path d="M50.9868 54.2697L50.7329 53.4883L50.3423 53.6153" fill="white"/>
<path d="M50.9868 54.2697L50.3222 53.7868L50.5636 53.4545" fill="white"/>
<path d="M50.021 54.2698L50.6856 53.7869L50.4442 53.4546" fill="white"/>
<path d="M50.021 54.2698L50.2749 53.4885L50.6655 53.6154" fill="white"/>
<path d="M48.188 55.0134L47.9849 55.6385L48.2974 55.74" fill="white"/>
<path d="M48.188 55.0134L48.3911 55.6385L48.0786 55.74" fill="white"/>
<path d="M48.813 55.4675H48.1558V55.7961" fill="white"/>
<path d="M48.813 55.4675L48.2813 55.8538L48.0881 55.588" fill="white"/>
<path d="M47.563 55.4675L48.0947 55.8538L48.2878 55.588" fill="white"/>
<path d="M47.563 55.4675H48.2202V55.7961" fill="white"/>
<path d="M48.5742 56.2024L48.3711 55.5773L48.0586 55.6789" fill="white"/>
<path d="M48.5742 56.2024L48.0425 55.8161L48.2357 55.5502" fill="white"/>
<path d="M47.8018 56.2024L48.3335 55.8161L48.1403 55.5502" fill="white"/>
<path d="M47.8018 56.2024L48.0049 55.5773L48.3174 55.6789" fill="white"/>
<path d="M49.3457 56.7974L49.2006 57.2438L49.4239 57.3164" fill="white"/>
<path d="M49.3457 56.7974L49.4908 57.2438L49.2675 57.3164" fill="white"/>
<path d="M49.7925 57.1217H49.323V57.3564" fill="white"/>
<path d="M49.7925 57.1217L49.4127 57.3976L49.2747 57.2077" fill="white"/>
<path d="M48.8994 57.1218L49.2792 57.3978L49.4172 57.2079" fill="white"/>
<path d="M48.8994 57.1218H49.3689V57.3565" fill="white"/>
<path d="M49.6221 57.6466L49.477 57.2001L49.2538 57.2727" fill="white"/>
<path d="M49.6221 57.6466L49.2423 57.3707L49.3802 57.1808" fill="white"/>
<path d="M49.0698 57.6466L49.4496 57.3707L49.3116 57.1808" fill="white"/>
<path d="M49.0698 57.6466L49.2149 57.2001L49.4381 57.2727" fill="white"/>
<path d="M57.3892 64.5824L57.1353 65.3637L57.526 65.4907" fill="white"/>
<path d="M57.3892 64.5824L57.643 65.3637L57.2524 65.4907" fill="white"/>
<path d="M58.1704 65.15H57.3489V65.5608" fill="white"/>
<path d="M58.1704 65.15L57.5058 65.6329L57.2643 65.3006" fill="white"/>
<path d="M56.6079 65.15L57.2725 65.6329L57.514 65.3006" fill="white"/>
<path d="M56.6079 65.15H57.4294V65.5608" fill="white"/>
<path d="M57.8721 66.0685L57.6182 65.2872L57.2275 65.4141" fill="white"/>
<path d="M57.8721 66.0685L57.2074 65.5856L57.4489 65.2533" fill="white"/>
<path d="M56.9062 66.0685L57.5709 65.5856L57.3294 65.2533" fill="white"/>
<path d="M56.9062 66.0685L57.1601 65.2872L57.5508 65.4141" fill="white"/>
<path d="M59.3608 62.7124L59.1577 63.3375L59.4703 63.439" fill="white"/>
<path d="M59.3608 62.7124L59.5639 63.3375L59.2514 63.439" fill="white"/>
<path d="M59.9858 63.1665H59.3286V63.4951" fill="white"/>
<path d="M59.9858 63.1665L59.4541 63.5528L59.261 63.287" fill="white"/>
<path d="M58.7358 63.1665L59.2675 63.5528L59.4607 63.287" fill="white"/>
<path d="M58.7358 63.1665H59.3931V63.4951" fill="white"/>
<path d="M59.7471 63.9014L59.544 63.2763L59.2314 63.3779" fill="white"/>
<path d="M59.7471 63.9014L59.2154 63.5151L59.4085 63.2492" fill="white"/>
<path d="M58.9746 63.9014L59.5063 63.5151L59.3132 63.2492" fill="white"/>
<path d="M58.9746 63.9014L59.1777 63.2763L59.4902 63.3779" fill="white"/>
<path d="M55.5742 62.149L55.3711 62.7741L55.6837 62.8757" fill="white"/>
<path d="M55.5742 62.149L55.7773 62.7741L55.4648 62.8757" fill="white"/>
<path d="M56.1992 62.6031H55.542V62.9318" fill="white"/>
<path d="M56.1992 62.6031L55.6675 62.9895L55.4744 62.7236" fill="white"/>
<path d="M54.9487 62.6031L55.4804 62.9895L55.6736 62.7236" fill="white"/>
<path d="M54.9487 62.6031H55.606V62.9318" fill="white"/>
<path d="M55.96 63.338L55.7569 62.713L55.4443 62.8145" fill="white"/>
<path d="M55.96 63.338L55.4283 62.9517L55.6214 62.6859" fill="white"/>
<path d="M55.1875 63.338L55.7192 62.9517L55.5261 62.6859" fill="white"/>
<path d="M55.1875 63.338L55.3906 62.713L55.7031 62.8145" fill="white"/>
<path d="M41.2715 61.132L40.9668 62.0695L41.4356 62.2219" fill="white"/>
<path d="M41.2715 61.132L41.5761 62.0695L41.1073 62.2219" fill="white"/>
<path d="M42.209 61.8131H41.2231V62.306" fill="white"/>
<path d="M42.209 61.8131L41.4114 62.3926L41.1217 61.9938" fill="white"/>
<path d="M40.334 61.8132L41.1315 62.3927L41.4213 61.9939" fill="white"/>
<path d="M40.334 61.8132H41.3198V62.3062" fill="white"/>
<path d="M41.8506 62.9153L41.5459 61.9777L41.0771 62.13" fill="white"/>
<path d="M41.8506 62.9153L41.053 62.3358L41.3428 61.937" fill="white"/>
<path d="M40.6919 62.9154L41.4895 62.3359L41.1997 61.9372" fill="white"/>
<path d="M40.6919 62.9154L40.9965 61.9778L41.4653 62.1301" fill="white"/>
<path d="M50.5039 67.579L50.4024 67.8915L50.5586 67.9423" fill="white"/>
<path d="M50.5039 67.579L50.6055 67.8915L50.4492 67.9423" fill="white"/>
<path d="M50.8164 67.8062H50.4878V67.9705" fill="white"/>
<path d="M50.8164 67.8062L50.5506 67.9993L50.454 67.8664" fill="white"/>
<path d="M50.1914 67.8059L50.4573 67.9991L50.5538 67.8661" fill="white"/>
<path d="M50.1914 67.8059H50.52V67.9702" fill="white"/>
<path d="M50.6968 68.1733L50.5952 67.8608L50.439 67.9116" fill="white"/>
<path d="M50.6968 68.1733L50.4309 67.9802L50.5275 67.8473" fill="white"/>
<path d="M50.3105 68.1735L50.5764 67.9803L50.4798 67.8474" fill="white"/>
<path d="M50.3105 68.1735L50.4121 67.8609L50.5684 67.9117" fill="white"/>
</g>
</g>
<defs>
<clipPath id="clip0_120_2920">
<rect width="100" height="100" fill="white" transform="translate(0.40625)"/>
</clipPath>
<clipPath id="clip1_120_2920">
<rect width="131.445" height="92.0117" fill="white" transform="translate(-15.2188 3.90625)"/>
</clipPath>
</defs>
</svg>
