<?xml version="1.0" standalone="no"?><!DOCTYPE svg PUBLIC "-//W3C//DTD SVG 1.1//EN" "http://www.w3.org/Graphics/SVG/1.1/DTD/svg11.dtd"><svg t="1628507702464" class="icon" viewBox="0 0 1024 1024" version="1.1" xmlns="http://www.w3.org/2000/svg" p-id="1250" width="32" height="32" xmlns:xlink="http://www.w3.org/1999/xlink"><defs><style type="text/css"></style></defs><path d="M384.9 304.2c-38.6 0-72.8 21.4-85.7 55.7-12.9 34.3-8.6 77.1 21.4 102.8 25.7 25.7 68.6 34.3 102.8 21.4 34.3-12.9 60-47.1 60-85.7 0-25.7-12.9-51.4-30-68.6-17.1-17.1-42.8-25.6-68.5-25.6z m0 0" fill="#989898" p-id="1251"></path><path d="M850.7 131H156.6c-47.1 0-81.4 34.3-81.4 77.1v527c0 42.8 34.3 77.1 81.4 77.1h694.1c42.8 0 81.4-34.3 81.4-77.1v-527c0-42.8-34.2-77.1-81.4-77.1z m52.5 541l-183-244c-9.4-14.1-28.2-23.5-46.9-18.8-18.8-4.7-42.2 4.7-56.3 18.8L457.4 672c-4.7 9.4-18.8 18.8-28.2 14.1-14.1 0-23.5-4.7-32.8-14.1l-84.5-93.9c-14-14.1-32.8-28.1-56.3-28.1-18.8 4.7-37.5 14.1-51.6 32.8l-93.9 112.6V198c0-9.4 4.7-14.1 9.4-18.8 9.4-9.4 14.1-9.4 23.5-9.4h732c9.4 0 14.1 4.7 18.8 9.4 4.7 4.7 9.4 14.1 9.4 18.8v474z" fill="#989898" p-id="1252"></path></svg>