<svg width="100" height="100" viewBox="0 0 100 100" fill="none" xmlns="http://www.w3.org/2000/svg">
<g clip-path="url(#clip0_123_4334)">
<rect width="100" height="100" fill="#EE1C25"/>
<g clip-path="url(#clip1_123_4334)">
<path d="M-20 0H170V100H-20" fill="#B31942"/>
<path d="M-20 11.5385H170ZM170 26.9231H-20ZM-20 42.3077H170ZM170 57.6923H-20ZM-20 73.0769H170ZM170 88.4615H-20Z" fill="black"/>
<path d="M-20 11.5385H170M170 26.9231H-20M-20 42.3077H170M170 57.6923H-20M-20 73.0769H170M170 88.4615H-20" stroke="white" stroke-width="7.69231"/>
<path d="M-20 0H56V53.8462H-20" fill="#0A3161"/>
<path d="M-0.999942 2.30762L0.808628 7.87382L-3.92627 4.43372H1.92639L-2.80851 7.87382L-0.999942 2.30762Z" fill="white"/>
<path d="M-0.999942 13.0769L0.808628 18.6431L-3.92627 15.203H1.92639L-2.80851 18.6431L-0.999942 13.0769Z" fill="white"/>
<path d="M-0.999942 23.8461L0.808628 29.4123L-3.92627 25.9722H1.92639L-2.80851 29.4123L-0.999942 23.8461Z" fill="white"/>
<path d="M-0.999942 34.6154L0.808628 40.1816L-3.92627 36.7415H1.92639L-2.80851 40.1816L-0.999942 34.6154Z" fill="white"/>
<path d="M-0.999942 45.3846L0.808628 50.9508L-3.92627 47.5107H1.92639L-2.80851 50.9508L-0.999942 45.3846Z" fill="white"/>
<path d="M5.33307 7.69226L7.14164 13.2585L2.40674 9.81836H8.25939L3.5245 13.2585L5.33307 7.69226Z" fill="white"/>
<path d="M5.33307 18.4615L7.14164 24.0278L2.40674 20.5876H8.25939L3.5245 24.0278L5.33307 18.4615Z" fill="white"/>
<path d="M5.33307 29.2307L7.14164 34.7969L2.40674 31.3568H8.25939L3.5245 34.7969L5.33307 29.2307Z" fill="white"/>
<path d="M5.33307 40L7.14164 45.5662L2.40674 42.1261H8.25939L3.5245 45.5662L5.33307 40Z" fill="white"/>
<path d="M11.6666 2.30762L13.4751 7.87382L8.74023 4.43372H14.5929L9.85799 7.87382L11.6666 2.30762Z" fill="white"/>
<path d="M11.6666 13.0769L13.4751 18.6431L8.74023 15.203H14.5929L9.85799 18.6431L11.6666 13.0769Z" fill="white"/>
<path d="M11.6666 23.8461L13.4751 29.4123L8.74023 25.9722H14.5929L9.85799 29.4123L11.6666 23.8461Z" fill="white"/>
<path d="M11.6666 34.6154L13.4751 40.1816L8.74023 36.7415H14.5929L9.85799 40.1816L11.6666 34.6154Z" fill="white"/>
<path d="M11.6666 45.3846L13.4751 50.9508L8.74023 47.5107H14.5929L9.85799 50.9508L11.6666 45.3846Z" fill="white"/>
<path d="M18.0001 7.69226L19.8086 13.2585L15.0737 9.81836H20.9264L16.1915 13.2585L18.0001 7.69226Z" fill="white"/>
<path d="M18.0001 18.4615L19.8086 24.0278L15.0737 20.5876H20.9264L16.1915 24.0278L18.0001 18.4615Z" fill="white"/>
<path d="M18.0001 29.2307L19.8086 34.7969L15.0737 31.3568H20.9264L16.1915 34.7969L18.0001 29.2307Z" fill="white"/>
<path d="M18.0001 40L19.8086 45.5662L15.0737 42.1261H20.9264L16.1915 45.5662L18.0001 40Z" fill="white"/>
<path d="M24.3336 2.30762L26.1421 7.87382L21.4072 4.43372H27.2599L22.525 7.87382L24.3336 2.30762Z" fill="white"/>
<path d="M24.3336 13.0769L26.1421 18.6431L21.4072 15.203H27.2599L22.525 18.6431L24.3336 13.0769Z" fill="white"/>
<path d="M24.3336 23.8461L26.1421 29.4123L21.4072 25.9722H27.2599L22.525 29.4123L24.3336 23.8461Z" fill="white"/>
<path d="M24.3336 34.6154L26.1421 40.1816L21.4072 36.7415H27.2599L22.525 40.1816L24.3336 34.6154Z" fill="white"/>
<path d="M24.3336 45.3846L26.1421 50.9508L21.4072 47.5107H27.2599L22.525 50.9508L24.3336 45.3846Z" fill="white"/>
<path d="M30.6666 7.69226L32.4751 13.2585L27.7402 9.81836H33.5929L28.858 13.2585L30.6666 7.69226Z" fill="white"/>
<path d="M30.6666 18.4615L32.4751 24.0278L27.7402 20.5876H33.5929L28.858 24.0278L30.6666 18.4615Z" fill="white"/>
<path d="M30.6666 29.2307L32.4751 34.7969L27.7402 31.3568H33.5929L28.858 34.7969L30.6666 29.2307Z" fill="white"/>
<path d="M30.6666 40L32.4751 45.5662L27.7402 42.1261H33.5929L28.858 45.5662L30.6666 40Z" fill="white"/>
<path d="M37.0001 2.30762L38.8086 7.87382L34.0737 4.43372H39.9264L35.1915 7.87382L37.0001 2.30762Z" fill="white"/>
<path d="M37.0001 13.0769L38.8086 18.6431L34.0737 15.203H39.9264L35.1915 18.6431L37.0001 13.0769Z" fill="white"/>
<path d="M37.0001 23.8461L38.8086 29.4123L34.0737 25.9722H39.9264L35.1915 29.4123L37.0001 23.8461Z" fill="white"/>
<path d="M37.0001 34.6154L38.8086 40.1816L34.0737 36.7415H39.9264L35.1915 40.1816L37.0001 34.6154Z" fill="white"/>
<path d="M37.0001 45.3846L38.8086 50.9508L34.0737 47.5107H39.9264L35.1915 50.9508L37.0001 45.3846Z" fill="white"/>
<path d="M43.3336 7.69226L45.1421 13.2585L40.4072 9.81836H46.2599L41.525 13.2585L43.3336 7.69226Z" fill="white"/>
<path d="M43.3336 18.4615L45.1421 24.0278L40.4072 20.5876H46.2599L41.525 24.0278L43.3336 18.4615Z" fill="white"/>
<path d="M43.3336 29.2307L45.1421 34.7969L40.4072 31.3568H46.2599L41.525 34.7969L43.3336 29.2307Z" fill="white"/>
<path d="M43.3336 40L45.1421 45.5662L40.4072 42.1261H46.2599L41.525 45.5662L43.3336 40Z" fill="white"/>
<path d="M49.6666 2.30762L51.4751 7.87382L46.7402 4.43372H52.5929L47.858 7.87382L49.6666 2.30762Z" fill="white"/>
<path d="M49.6666 13.0769L51.4751 18.6431L46.7402 15.203H52.5929L47.858 18.6431L49.6666 13.0769Z" fill="white"/>
<path d="M49.6666 23.8461L51.4751 29.4123L46.7402 25.9722H52.5929L47.858 29.4123L49.6666 23.8461Z" fill="white"/>
<path d="M49.6666 34.6154L51.4751 40.1816L46.7402 36.7415H52.5929L47.858 40.1816L49.6666 34.6154Z" fill="white"/>
<path d="M49.6666 45.3846L51.4751 50.9508L46.7402 47.5107H52.5929L47.858 50.9508L49.6666 45.3846Z" fill="white"/>
</g>
</g>
<defs>
<clipPath id="clip0_123_4334">
<rect width="100" height="100" fill="white"/>
</clipPath>
<clipPath id="clip1_123_4334">
<rect width="190" height="100" fill="white" transform="translate(-20)"/>
</clipPath>
</defs>
</svg>
