<svg width="100" height="100" viewBox="0 0 100 100" fill="none" xmlns="http://www.w3.org/2000/svg">
<rect width="100" height="100" fill="#EE1C25"/>
<path d="M31.4994 22L44.7245 62.7029L10.1006 37.5471H52.8982L18.2742 62.7029L31.4994 22Z" fill="#FFFF00"/>
<path d="M71.9347 15.0988L70.6824 29.3096L63.3427 17.0767L76.4709 22.6592L62.5687 25.8595L71.9347 15.0988Z" fill="#FFFF00"/>
<path d="M89.3821 31.7779L82.7133 44.3891L80.6958 30.2666L90.629 40.5061L76.5743 38.0608L89.3821 31.7779Z" fill="#FFFF00"/>
<path d="M91.0456 56.9289L79.8123 65.7226L83.7315 52.0056L88.6234 65.4065L76.7889 57.4404L91.0456 56.9289Z" fill="#FFFF00"/>
<path d="M71.6459 67.4823L70.9839 81.7328L63.1432 69.8148L76.4917 74.8481L62.7341 78.6221L71.6459 67.4823Z" fill="#FFFF00"/>
</svg>
