<svg width="21" height="13" viewBox="0 0 21 13" fill="none" xmlns="http://www.w3.org/2000/svg">
<path d="M1.18315 3.78965L9.44158 12.0481C9.77061 12.3674 10.2116 12.5452 10.6701 12.5436C10.8981 12.5447 11.1241 12.5006 11.3349 12.4137C11.5458 12.3269 11.7373 12.1991 11.8985 12.0378L20.1569 3.77932C20.3186 3.61821 20.4469 3.42675 20.5344 3.21595C20.622 3.00515 20.667 2.77914 20.667 2.55088C20.667 2.32263 20.622 2.09662 20.5344 1.88582C20.4469 1.67501 20.3186 1.48356 20.1569 1.32244C19.9965 1.16013 19.805 1.03172 19.594 0.944824C19.383 0.857931 19.1567 0.814331 18.9285 0.816614C18.6997 0.816838 18.4733 0.86259 18.2624 0.951206C18.0515 1.03982 17.8603 1.16953 17.7 1.33277L10.6804 8.37307L3.64004 1.32244C3.30777 1.00504 2.866 0.827917 2.40649 0.827917C1.94698 0.827917 1.50508 1.00504 1.17282 1.32244C0.850675 1.65043 0.669209 2.09116 0.666998 2.55088C0.666426 2.7813 0.711824 3.00952 0.800446 3.22221C0.889068 3.43491 1.01914 3.62781 1.18315 3.78965V3.78965Z" fill="white"/>
</svg>
